<?xml version="1.0" standalone="no"?><!DOCTYPE svg PUBLIC "-//W3C//DTD SVG 1.1//EN" "http://www.w3.org/Graphics/SVG/1.1/DTD/svg11.dtd"><svg t="1544254522576" class="icon" style="" viewBox="0 0 1466 1024" version="1.1" xmlns="http://www.w3.org/2000/svg" p-id="7819" data-spm-anchor-id="a313x.7781069.0.i14" xmlns:xlink="http://www.w3.org/1999/xlink" width="286.328125" height="200"><defs><style type="text/css"></style></defs><path d="M 1257.77 0 H 208.664 A 208.894 208.894 0 0 0 0 208.664 v 606.671 a 208.894 208.894 0 0 0 208.664 208.664 h 1049.1 a 208.894 208.894 0 0 0 208.664 -208.664 V 208.664 a 208.894 208.894 0 0 0 -208.664 -208.664 Z m 125.199 815.336 a 125.345 125.345 0 0 1 -125.199 125.199 H 208.664 a 125.345 125.345 0 0 1 -125.199 -125.199 V 208.664 a 125.345 125.345 0 0 1 125.199 -125.199 h 1049.1 a 125.345 125.345 0 0 1 125.199 125.199 Z" fill="#ffffff" p-id="7820" data-spm-anchor-id="a313x.7781069.0.i12" class="selected"></path><path d="M 419.249 376.118 a 320.863 320.863 0 0 1 -63.2253 25.1858 v 44.5916 a 227.632 227.632 0 0 0 48.7858 -18.592 q 26.3335 -13.2293 37.3927 -23.9129 v 307.676 h 46.6156 V 343.483 h -17.7782 q -18.1329 15.4203 -51.7905 32.6351 Z M 677.659 640.704 q 6.25993 -12.3112 21.9932 -25.7701 t 62.3907 -44.5916 q 45.6767 -30.4233 64.5399 -59.4485 t 18.7798 -68.7132 q 0 -44.5916 -30.7571 -70.7164 t -81.1705 -26.1248 q -31.2997 0 -54.4406 9.7655 a 127.974 127.974 0 0 0 -41.4825 28.0862 v 44.1117 a 155.267 155.267 0 0 1 43.9865 -32.4891 a 106.419 106.419 0 0 1 46.7408 -11.3931 q 32.7186 0 51.6862 16.6932 t 18.9885 45.6141 a 85.5524 85.5524 0 0 1 -16.088 50.8933 q -16.0046 22.4106 -59.7406 52.1661 q -42.7762 28.7957 -62.9749 49.3491 t -28.9626 42.2546 q -8.76391 21.722 -8.76391 52.8338 v 17.8825 h 234.122 V 670.648 h -185.085 a 65.4789 65.4789 0 0 1 6.23907 -29.9433 Z M 1047.37 523.435 v -0.918124 q 74.5141 -20.2196 74.5141 -90.7899 q 0 -38.3108 -28.8374 -62.3489 t -76.4547 -24.0381 q -48.7858 0 -85.3229 20.4283 v 42.964 q 34.6174 -25.5405 73.8046 -25.5405 q 68.4837 0 68.5045 59.219 q 0 64.0809 -89.7257 64.0809 h -29.5052 v 37.5596 h 31.0075 q 101.202 0 101.202 68.2542 q 0 30.6319 -22.4732 48.8901 t -60.9509 18.2164 a 140.431 140.431 0 0 1 -86.2828 -28.5662 v 47.1373 q 32.4265 19.0719 85.3229 19.0511 q 60.0954 0 96.2778 -29.7138 t 36.1824 -78.27 q 0 -34.8052 -23.433 -58.1548 t -63.8305 -27.4602 Z" fill="#ffffff" p-id="7821" data-spm-anchor-id="a313x.7781069.0.i13" class="selected"></path></svg>