<?xml version="1.0" standalone="no"?><!DOCTYPE svg PUBLIC "-//W3C//DTD SVG 1.1//EN" "http://www.w3.org/Graphics/SVG/1.1/DTD/svg11.dtd"><svg t="1544253296345" class="icon" style="" viewBox="0 0 1024 1024" version="1.1" xmlns="http://www.w3.org/2000/svg" p-id="6206" xmlns:xlink="http://www.w3.org/1999/xlink" width="200" height="200"><defs><style type="text/css"></style></defs><path d="M608 25.6c-32 0-57.6 0-89.6 6.4-6.4 0-12.8 12.8-12.8 19.2C505.6 57.6 512 64 524.8 64 550.4 57.6 576 51.2 608 51.2c211.2 0 390.4 172.8 390.4 390.4 0 83.2-25.6 166.4-76.8 236.8-6.4 6.4-6.4 19.2 0 19.2 0 0 6.4 0 6.4 0 6.4 0 6.4 0 12.8-6.4C992 620.8 1024 531.2 1024 441.6 1024 211.2 838.4 25.6 608 25.6zM608 185.6c-19.2 0-44.8 0-64 6.4-6.4 0-12.8 12.8-12.8 19.2 0 6.4 12.8 12.8 19.2 12.8 19.2-6.4 38.4-6.4 57.6-6.4 134.4 0 243.2 108.8 243.2 243.2 0 44.8-12.8 83.2-32 121.6-6.4 6.4 0 19.2 6.4 19.2 0 0 6.4 0 6.4 0 6.4 0 12.8 0 12.8-6.4 25.6-38.4 38.4-89.6 38.4-134.4C876.8 307.2 755.2 185.6 608 185.6zM678.4 556.8c0 0 6.4 0 6.4 0 6.4 0 12.8 0 12.8-6.4 12.8-19.2 19.2-44.8 19.2-70.4 0-76.8-64-140.8-140.8-140.8-12.8 0-25.6 0-32 6.4-6.4 0-12.8 12.8-12.8 19.2 0 6.4 12.8 12.8 19.2 12.8 6.4 0 19.2 0 25.6 0 64 0 108.8 51.2 108.8 108.8 0 19.2-6.4 38.4-12.8 57.6C672 544 672 550.4 678.4 556.8zM640 672c-57.6 0-134.4 64-134.4 64C320 710.4 179.2 550.4 179.2 358.4c0-6.4 0-19.2 0-25.6l6.4 0c6.4 0 12.8 0 12.8 0 89.6 0 160-70.4 160-160S294.4 6.4 204.8 6.4c-64 0-121.6 38.4-147.2 89.6 0 6.4-6.4 12.8-6.4 19.2C19.2 192 0 268.8 0 358.4c0 352 275.2 640 620.8 665.6l19.2 0c96 0 172.8-76.8 172.8-172.8C819.2 755.2 736 672 640 672z" p-id="6207"></path></svg>