<?xml version="1.0" standalone="no"?><!DOCTYPE svg PUBLIC "-//W3C//DTD SVG 1.1//EN" "http://www.w3.org/Graphics/SVG/1.1/DTD/svg11.dtd"><svg t="1547993987941" class="icon" style="" viewBox="0 0 1028 1024" version="1.1" xmlns="http://www.w3.org/2000/svg" p-id="2840" xmlns:xlink="http://www.w3.org/1999/xlink" width="32.125" height="32"><defs><style type="text/css"></style></defs><path d="M295.339707 680.983883" p-id="2841" fill="#dbdbdb"></path><path d="M820.291519 532.408135l-89.509221-97.540506 0 76.266897-31.571399 0c-36.232738 0-138.679119 50.27233-138.679119 188.15317 36.232738-77.861432 104.528978-81.110121 170.250518-81.110121l0 81.110121 89.509221-102.751546 28.692545-32.922409L820.291519 532.408135z" p-id="2842" fill="#dbdbdb"></path><path d="M509.891636 16.506171c-277.416845 0-502.231196 224.87599-502.231196 502.231196 0 277.355206 224.814351 502.230186 502.231196 502.230186 277.415835 0 502.230186-224.87599 502.230186-502.230186C1012.121822 241.382161 787.307471 16.506171 509.891636 16.506171zM133.217481 335.977122c0-37.764624 29.734349-68.356869 66.45919-68.356869l554.158691 0c36.661181 0 66.457169 30.592245 66.457169 68.356869l0 50.579516c-35.864923-26.240113-79.698483-41.627684-126.90603-41.627684-107.350235 0-196.922105 79.638864-215.925169 184.535656L133.217481 348.056386 133.217481 335.977122zM199.67566 729.204941c-36.724841 0-66.45919-30.591235-66.45919-68.357879L133.21647 402.068497l332.900214 175.400928c2.514071 1.347979 5.15041 2.146257 7.78675 2.51205 2.207896 57.99744 25.746999 110.416027 62.778015 149.223465L199.67566 729.204941zM693.385489 769.790821c-44.019487 0-84.48411-15.143035-116.975045-40.58588-46.349651-36.356016-76.205257-93.677446-76.205257-158.233904 0-109.802667 86.504057-198.821805 193.180302-198.821805 48.556537 0 92.942828 18.454374 126.90603 48.924351 40.58487 36.477274 66.274272 90.121571 66.274272 149.897454C886.565791 680.772693 800.060723 769.790821 693.385489 769.790821z" p-id="2843" fill="#dbdbdb"></path><path d="M501.062072 589.914482c-0.060629-0.673989-0.123278-1.410628-0.183907-2.084618C500.938794 588.503854 501.001444 589.240493 501.062072 589.914482z" p-id="2844" fill="#dbdbdb"></path><path d="M693.385489 372.149231c1.593525 0 3.188061 0.061639 4.780575 0.061639C696.573549 372.21087 694.979014 372.149231 693.385489 372.149231z" p-id="2845" fill="#dbdbdb"></path><path d="M704.787731 372.518056c0.982185 0.060629 1.840082 0.122268 2.820246 0.183907C706.627813 372.640324 705.769917 372.577674 704.787731 372.518056z" p-id="2846" fill="#dbdbdb"></path><path d="M501.616825 595.431696c0-0.61235-0.124289-1.286339-0.185928-1.901721C501.491526 594.145357 501.616825 594.819346 501.616825 595.431696z" p-id="2847" fill="#dbdbdb"></path><path d="M752.60864 381.713413c0.734618 0.183907 1.348989 0.429453 2.084618 0.675C753.957629 382.142866 753.343258 381.89732 752.60864 381.713413z" p-id="2848" fill="#dbdbdb"></path><path d="M709.631967 372.88587c0.918525 0.061639 1.776422 0.123278 2.636339 0.244536C711.408388 373.009149 710.550492 372.946499 709.631967 372.88587z" p-id="2849" fill="#dbdbdb"></path><path d="M500.633629 584.27399c-0.061639-0.672979-0.123278-1.35-0.123278-2.022979C500.510351 582.92399 500.57199 583.601011 500.633629 584.27399z" p-id="2850" fill="#dbdbdb"></path><path d="M503.332618 607.017846c0-0.182897 0-0.428443-0.123278-0.673989C503.332618 606.589403 503.332618 606.83495 503.332618 607.017846z" p-id="2851" fill="#dbdbdb"></path><path d="M500.327454 578.387951c0-0.61134-0.061639-1.164072-0.061639-1.777432C500.266826 577.222869 500.327454 577.775601 500.327454 578.387951z" p-id="2852" fill="#dbdbdb"></path><path d="M714.350903 373.314313c0.857896 0.123278 1.716803 0.245546 2.578742 0.307186C716.067706 373.55986 715.207789 373.437592 714.350903 373.314313z" p-id="2853" fill="#dbdbdb"></path><path d="M743.042437 378.831527c0.981175 0.245546 1.96235 0.552732 2.945546 0.797268C745.005797 379.384259 744.023612 379.077074 743.042437 378.831527z" p-id="2854" fill="#dbdbdb"></path><path d="M737.279677 377.298631c0.983196 0.245546 1.839071 0.491093 2.759618 0.675C739.119759 377.790734 738.262873 377.545188 737.279677 377.298631z" p-id="2855" fill="#dbdbdb"></path><path d="M748.194868 380.303795c0.735629 0.183907 1.470247 0.428443 2.145246 0.672979C749.665115 380.733248 748.930497 380.488713 748.194868 380.303795z" p-id="2856" fill="#dbdbdb"></path><path d="M732.804266 376.319477c0.800299 0.182897 1.659206 0.366804 2.516092 0.550711C734.462462 376.686281 733.604565 376.502374 732.804266 376.319477z" p-id="2857" fill="#dbdbdb"></path><path d="M728.269237 375.398931c0.797268 0.183907 1.655164 0.305165 2.51205 0.491093C729.924402 375.705106 729.066505 375.583849 728.269237 375.398931z" p-id="2858" fill="#dbdbdb"></path><path d="M719.011231 373.926663c0.859917 0.124289 1.717814 0.246557 2.5747 0.368825C720.729045 374.17322 719.871148 374.050952 719.011231 373.926663z" p-id="2859" fill="#dbdbdb"></path><path d="M723.670548 374.600653c0.857896 0.124289 1.715793 0.307186 2.514071 0.429453C725.387352 374.908849 724.528445 374.724942 723.670548 374.600653z" p-id="2860" fill="#dbdbdb"></path><path d="M502.350433 600.888282c-0.06265-0.430464-0.124289-0.920546-0.182897-1.410628C502.226144 599.967736 502.288794 600.458828 502.350433 600.888282z" p-id="2861" fill="#dbdbdb"></path><path d="M529.202896 675.867829c-0.123278-0.245546-0.245546-0.429453-0.367814-0.673989C528.95735 675.438375 529.079618 675.621272 529.202896 675.867829z" p-id="2862" fill="#dbdbdb"></path><path d="M532.1444 680.527146c-0.121257-0.245546-0.244536-0.429453-0.428443-0.675C531.899864 680.097693 532.023142 680.2816 532.1444 680.527146z" p-id="2863" fill="#dbdbdb"></path><path d="M526.199753 670.656789c0 0-0.06265 0-0.06265-0.06265C526.137103 670.656789 526.199753 670.656789 526.199753 670.656789z" p-id="2864" fill="#dbdbdb"></path><path d="M535.089945 685.003567c-0.124289-0.185928-0.124289-0.308196-0.247567-0.430464C534.964646 684.695371 534.964646 684.817639 535.089945 685.003567z" p-id="2865" fill="#dbdbdb"></path><path d="M548.638445 702.658653c-0.06366-0.123278-0.183907-0.184918-0.183907-0.245546C548.454538 702.474745 548.574785 702.535374 548.638445 702.658653z" p-id="2866" fill="#dbdbdb"></path><path d="M520.987704 660.784412c-0.122268-0.182897-0.122268-0.365793-0.245546-0.487051C520.865436 660.417608 520.865436 660.601515 520.987704 660.784412z" p-id="2867" fill="#dbdbdb"></path><path d="M572.11894 725.771334c0 0 0-0.06265-0.06265-0.06265C572.11894 725.709695 572.11894 725.771334 572.11894 725.771334z" p-id="2868" fill="#dbdbdb"></path><path d="M552.254949 706.766249c-0.061639-0.121257-0.123278-0.183907-0.185928-0.244536C552.13167 706.582342 552.193309 706.644991 552.254949 706.766249z" p-id="2869" fill="#dbdbdb"></path><path d="M516.513303 651.098973c-0.185928-0.429453-0.305165-0.858907-0.554753-1.28735C516.208139 650.240066 516.327375 650.669519 516.513303 651.098973z" p-id="2870" fill="#dbdbdb"></path><path d="M507.192647 624.18487c-0.180876-0.61235-0.304154-1.165082-0.428443-1.716803C506.888493 623.019788 507.011771 623.57252 507.192647 624.18487z" p-id="2871" fill="#dbdbdb"></path><path d="M510.257429 634.48468c-0.060629-0.123278-0.060629-0.183907-0.060629-0.244536C510.197811 634.301784 510.197811 634.361402 510.257429 634.48468z" p-id="2872" fill="#dbdbdb"></path><path d="M508.665925 629.335281c-0.184918-0.428443-0.310217-0.919536-0.430464-1.410628C508.355708 628.415745 508.481008 628.906838 508.665925 629.335281z" p-id="2873" fill="#dbdbdb"></path><path d="M505.845679 618.851563c-0.183907-0.613361-0.307186-1.164072-0.430464-1.777432C505.538493 617.686481 505.661772 618.237192 505.845679 618.851563z" p-id="2874" fill="#dbdbdb"></path><path d="M518.720189 656.003837c-0.185928-0.367814-0.306175-0.736639-0.553742-1.104453C518.415025 655.267198 518.535272 655.636022 518.720189 656.003837z" p-id="2875" fill="#dbdbdb"></path><path d="M512.28445 640.248451c-0.125299-0.184918-0.125299-0.307186-0.248578-0.490082C512.15915 639.941266 512.15915 640.063534 512.28445 640.248451z" p-id="2876" fill="#dbdbdb"></path><path d="M504.557319 613.334349c-0.061639-0.553742-0.184918-1.042814-0.305165-1.594536C504.372401 612.291535 504.495679 612.780607 504.557319 613.334349z" p-id="2877" fill="#dbdbdb"></path><path d="M514.367047 645.949573c-0.123278-0.368825-0.246557-0.798278-0.429453-1.166093C514.12049 645.151295 514.243768 645.580748 514.367047 645.949573z" p-id="2878" fill="#dbdbdb"></path><path d="M699.758578 372.27251c1.043825 0.061639 2.086639 0.061639 3.127432 0.122268C701.846228 372.334149 700.803414 372.334149 699.758578 372.27251z" p-id="2879" fill="#dbdbdb"></path><path d="M792.457881 400.291065c0.183907 0.121257 0.365793 0.244536 0.552732 0.306175C792.823674 400.534591 792.640778 400.412323 792.457881 400.291065z" p-id="2880" fill="#dbdbdb"></path><path d="M781.789246 394.16049c0.184918 0.121257 0.368825 0.182897 0.552732 0.304154C782.158071 394.343387 781.974164 394.281748 781.789246 394.16049z" p-id="2881" fill="#dbdbdb"></path><path d="M795.76922 402.373662c0.365793 0.245546 0.671968 0.430464 0.978143 0.673989C796.441188 402.804126 796.135013 402.619208 795.76922 402.373662z" p-id="2882" fill="#dbdbdb"></path><path d="M799.327116 404.764455c0.364783 0.247567 0.734618 0.491093 1.100411 0.736639C800.060723 405.255548 799.691899 405.011012 799.327116 404.764455z" p-id="2883" fill="#dbdbdb"></path><path d="M773.697332 390.112512c0.5497 0.245546 1.040793 0.490082 1.593525 0.736639C774.739136 390.603605 774.247032 390.359069 773.697332 390.112512z" p-id="2884" fill="#dbdbdb"></path><path d="M769.651375 388.273441c0.489072 0.245546 1.101422 0.491093 1.592515 0.736639C770.752797 388.764534 770.141457 388.518987 769.651375 388.273441z" p-id="2885" fill="#dbdbdb"></path><path d="M777.7443 392.073852c0.488061 0.245546 0.860928 0.491093 1.348989 0.675C778.605227 392.564944 778.233371 392.320409 777.7443 392.073852z" p-id="2886" fill="#dbdbdb"></path><path d="M816.920562 418.130058c0.244536 0.183907 0.428443 0.429453 0.672979 0.613361C817.349005 418.559511 817.165098 418.313965 816.920562 418.130058z" p-id="2887" fill="#dbdbdb"></path><path d="M806.558102 409.792597c0.367814 0.306175 0.73765 0.61235 1.106474 0.858907C807.295752 410.405958 806.925916 410.098772 806.558102 409.792597z" p-id="2888" fill="#dbdbdb"></path><path d="M802.939578 407.217897c0.430464 0.306175 0.799289 0.551721 1.167103 0.797268C803.738866 407.769619 803.370041 407.524072 802.939578 407.217897z" p-id="2889" fill="#dbdbdb"></path><path d="M810.051327 412.490576c0.310217 0.306175 0.677021 0.551721 1.043825 0.858907C810.728348 413.042297 810.361544 412.796751 810.051327 412.490576z" p-id="2890" fill="#dbdbdb"></path><path d="M813.545563 415.249183c0.247567 0.306175 0.614371 0.550711 0.858907 0.796257C814.159934 415.799894 813.79313 415.555358 813.545563 415.249183z" p-id="2891" fill="#dbdbdb"></path><path d="M756.962793 383.18467c0.671968 0.245546 1.286339 0.491093 1.897679 0.736639C758.249132 383.674752 757.634761 383.429206 756.962793 383.18467z" p-id="2892" fill="#dbdbdb"></path><path d="M761.190636 384.779205c0.67601 0.244536 1.28735 0.490082 1.900711 0.736639C762.478997 385.269288 761.866646 385.023741 761.190636 384.779205z" p-id="2893" fill="#dbdbdb"></path><path d="M765.480119 386.494998c0.553742 0.245546 1.166093 0.491093 1.720845 0.735629C766.647222 386.986091 766.033861 386.740545 765.480119 386.494998z" p-id="2894" fill="#dbdbdb"></path><path d="M811.095152 413.349483c0.796257 0.61134 1.592515 1.286339 2.450411 1.8997C812.687666 414.636833 811.891409 413.961833 811.095152 413.349483z" p-id="2895" fill="#dbdbdb"></path><path d="M513.937593 644.78348c-0.552732-1.470247-1.166093-3.003143-1.653143-4.535029C512.771501 641.780337 513.384861 643.313234 513.937593 644.78348z" p-id="2896" fill="#dbdbdb"></path><path d="M518.166447 654.900394c-0.490082-1.28735-1.102432-2.51205-1.654154-3.801421C517.065025 652.387333 517.676365 653.612033 518.166447 654.900394z" p-id="2897" fill="#dbdbdb"></path><path d="M754.693258 382.388413c0.735629 0.245546 1.468226 0.552732 2.269535 0.796257C756.161483 382.941145 755.427876 382.633959 754.693258 382.388413z" p-id="2898" fill="#dbdbdb"></path><path d="M515.958551 649.810612c-0.488061-1.286339-1.036751-2.573689-1.591504-3.861039C514.921799 647.237933 515.470489 648.524273 515.958551 649.810612z" p-id="2899" fill="#dbdbdb"></path><path d="M807.664576 410.651504c0.734618 0.61235 1.591504 1.2247 2.386751 1.839071C809.25608 411.876205 808.398184 411.263854 807.664576 410.651504z" p-id="2900" fill="#dbdbdb"></path><path d="M510.197811 634.240145c-0.5497-1.594536-1.039783-3.25071-1.531886-4.904864C509.157018 630.989434 509.648111 632.645609 510.197811 634.240145z" p-id="2901" fill="#dbdbdb"></path><path d="M745.987983 379.628795c0.735629 0.247567 1.469236 0.430464 2.206886 0.67601C747.458229 380.059259 746.723611 379.875352 745.987983 379.628795z" p-id="2902" fill="#dbdbdb"></path><path d="M814.403459 416.04544c0.859917 0.736639 1.720845 1.410628 2.516092 2.084618C816.125315 417.455058 815.263377 416.782079 814.403459 416.04544z" p-id="2903" fill="#dbdbdb"></path><path d="M758.860472 383.921309c0.858907 0.245546 1.596556 0.552732 2.331175 0.857896C760.457029 384.47303 759.718369 384.165845 758.860472 383.921309z" p-id="2904" fill="#dbdbdb"></path><path d="M512.035872 639.757359c-0.610329-1.779453-1.2247-3.494236-1.778443-5.272678C510.811172 636.263123 511.426553 637.977906 512.035872 639.757359z" p-id="2905" fill="#dbdbdb"></path><path d="M531.716967 679.852146c-0.798278-1.348989-1.656175-2.697978-2.513061-3.984318C530.060793 677.154168 530.918689 678.503157 531.716967 679.852146z" p-id="2906" fill="#dbdbdb"></path><path d="M820.291519 421.073582 820.291519 421.073582c-0.858907-0.798278-1.779453-1.594536-2.697978-2.330164C818.512066 419.480057 819.432612 420.276315 820.291519 421.073582z" p-id="2907" fill="#dbdbdb"></path><path d="M534.841368 684.573103c-0.919536-1.347979-1.835029-2.697978-2.696968-4.045957C533.006338 681.875125 533.921832 683.225125 534.841368 684.573103z" p-id="2908" fill="#dbdbdb"></path><path d="M548.454538 702.413106c-4.783607-5.517214-9.199399-11.342624-13.365603-17.409539C539.256149 691.070482 543.670931 696.895892 548.454538 702.413106z" p-id="2909" fill="#dbdbdb"></path><path d="M576.410444 729.204941c-1.473278-1.103443-2.819236-2.268525-4.291503-3.432596C573.591208 726.936416 574.937166 728.101498 576.410444 729.204941z" p-id="2910" fill="#dbdbdb"></path><path d="M552.06902 706.520702c-1.164072-1.286339-2.328143-2.57571-3.431586-3.86205C549.741888 703.946003 550.904949 705.234363 552.06902 706.520702z" p-id="2911" fill="#dbdbdb"></path><path d="M508.235461 627.923642c-0.364783-1.225711-0.73765-2.513061-1.042814-3.738771C507.497812 625.410581 507.870678 626.697931 508.235461 627.923642z" p-id="2912" fill="#dbdbdb"></path><path d="M526.137103 670.59515c-1.778443-3.189071-3.493225-6.4994-5.1494-9.810739C522.643878 664.095751 524.358661 667.405069 526.137103 670.59515z" p-id="2913" fill="#dbdbdb"></path><path d="M750.340115 380.976774c0.797268 0.245546 1.532896 0.490082 2.268525 0.736639C751.873011 381.467866 751.137383 381.22232 750.340115 380.976774z" p-id="2914" fill="#dbdbdb"></path><path d="M552.254949 706.766249c6.130575 6.743935 12.753253 13.060438 19.802353 18.943446C565.008201 719.825677 558.385523 713.509174 552.254949 706.766249z" p-id="2915" fill="#dbdbdb"></path><path d="M520.742157 660.296351c-0.735629-1.410628-1.35-2.882896-2.021968-4.292514C519.392158 657.414465 520.007539 658.885722 520.742157 660.296351z" p-id="2916" fill="#dbdbdb"></path><path d="M663.957315 374.479395C571.260033 389.070709 500.205186 471.46818 500.205186 570.971037 500.205186 471.46818 571.260033 389.070709 663.957315 374.479395z" p-id="2917" fill="#dbdbdb"></path><path d="M528.835082 675.193839c-0.858907-1.472268-1.715793-3.005164-2.635329-4.536039C527.119289 672.188675 527.976175 673.720561 528.835082 675.193839z" p-id="2918" fill="#dbdbdb"></path><path d="M775.290857 390.849152c0.857896 0.429453 1.655164 0.857896 2.453442 1.2247C776.946021 391.707048 776.148754 391.278605 775.290857 390.849152z" p-id="2919" fill="#dbdbdb"></path><path d="M707.607978 372.701963c0.673989 0.061639 1.35 0.122268 2.023989 0.183907C708.957977 372.82322 708.281967 372.763602 707.607978 372.701963z" p-id="2920" fill="#dbdbdb"></path><path d="M779.093289 392.748852c0.858907 0.491093 1.778443 0.919536 2.695957 1.410628C780.871731 393.669398 779.952196 393.239944 779.093289 392.748852z" p-id="2921" fill="#dbdbdb"></path><path d="M730.782298 375.891034c0.614371 0.121257 1.35 0.242515 2.021968 0.428443C732.132298 376.133549 731.396669 376.012292 730.782298 375.891034z" p-id="2922" fill="#dbdbdb"></path><path d="M702.88601 372.393767c0.67601 0.06265 1.286339 0.06265 1.901721 0.124289C704.17336 372.456417 703.562021 372.456417 702.88601 372.393767z" p-id="2923" fill="#dbdbdb"></path><path d="M782.341978 394.464645c3.431586 1.840082 6.805575 3.801421 10.115903 5.826421C789.147553 398.266066 785.773564 396.304726 782.341978 394.464645z" p-id="2924" fill="#dbdbdb"></path><path d="M698.166064 372.21087c0.491093 0 1.043825 0.061639 1.592515 0.061639C699.209888 372.27251 698.658167 372.21087 698.166064 372.21087z" p-id="2925" fill="#dbdbdb"></path><path d="M500.266826 576.610519c0-1.900711-0.061639-3.739782-0.061639-5.639482C500.205186 572.870737 500.266826 574.709808 500.266826 576.610519z" p-id="2926" fill="#dbdbdb"></path><path d="M721.585931 374.295488c0.735629 0.059618 1.410628 0.183907 2.084618 0.305165C722.996559 374.479395 722.321559 374.355106 721.585931 374.295488z" p-id="2927" fill="#dbdbdb"></path><path d="M771.2449 389.00907c0.858907 0.367814 1.714782 0.736639 2.453442 1.103443C772.959682 389.745709 772.102796 389.376884 771.2449 389.00907z" p-id="2928" fill="#dbdbdb"></path><path d="M716.929644 373.621499c0.734618 0.122268 1.407597 0.183907 2.082597 0.305165C718.336231 373.805406 717.663252 373.743767 716.929644 373.621499z" p-id="2929" fill="#dbdbdb"></path><path d="M500.510351 582.251011c-0.061639-1.286339-0.120247-2.57571-0.182897-3.86306C500.390104 579.675301 500.448712 580.964672 500.510351 582.251011z" p-id="2930" fill="#dbdbdb"></path><path d="M712.268306 373.130406c0.733608 0.061639 1.410628 0.124289 2.082597 0.183907C713.678934 373.254695 713.001913 373.192045 712.268306 373.130406z" p-id="2931" fill="#dbdbdb"></path><path d="M726.18563 375.030106c0.672979 0.124289 1.408607 0.245546 2.084618 0.368825C727.593227 375.275652 726.858609 375.154395 726.18563 375.030106z" p-id="2932" fill="#dbdbdb"></path><path d="M804.106681 408.015165c0.797268 0.61235 1.592515 1.2247 2.451422 1.777432C805.699195 409.239865 804.903948 408.627515 804.106681 408.015165z" p-id="2933" fill="#dbdbdb"></path><path d="M767.201974 387.230627c0.857896 0.307186 1.592515 0.675 2.450411 1.042814C768.794489 387.905627 768.05886 387.537813 767.201974 387.230627z" p-id="2934" fill="#dbdbdb"></path><path d="M503.20934 606.343857c-0.245546-1.778443-0.61134-3.615493-0.858907-5.454564C502.59699 602.728364 502.963793 604.565414 503.20934 606.343857z" p-id="2935" fill="#dbdbdb"></path><path d="M504.252154 611.739814c-0.308196-1.594536-0.614371-3.127432-0.919536-4.721967C503.637783 608.612382 503.943958 610.144268 504.252154 611.739814z" p-id="2936" fill="#dbdbdb"></path><path d="M740.040305 377.973631c1.042814 0.307186 2.021968 0.552732 3.003143 0.857896C742.062273 378.527373 741.083119 378.281827 740.040305 377.973631z" p-id="2937" fill="#dbdbdb"></path><path d="M800.426517 405.501094c0.858907 0.552732 1.715793 1.165082 2.51205 1.716803C802.14332 406.665165 801.285424 406.053826 800.426517 405.501094z" p-id="2938" fill="#dbdbdb"></path><path d="M505.415215 617.074131c-0.244536-1.227732-0.553742-2.515082-0.858907-3.739782C504.861473 614.559049 505.170679 615.846399 505.415215 617.074131z" p-id="2939" fill="#dbdbdb"></path><path d="M506.764204 622.468067c-0.366804-1.225711-0.613361-2.389782-0.918525-3.616504C506.150844 620.078284 506.3974 621.242356 506.764204 622.468067z" p-id="2940" fill="#dbdbdb"></path><path d="M793.010613 400.59623c0.919536 0.613361 1.901721 1.164072 2.758607 1.777432C794.911324 401.761312 793.930149 401.20959 793.010613 400.59623z" p-id="2941" fill="#dbdbdb"></path><path d="M501.430897 593.529975c-0.123278-1.2247-0.243525-2.389782-0.368825-3.615493C501.187372 591.140193 501.307619 592.305275 501.430897 593.529975z" p-id="2942" fill="#dbdbdb"></path><path d="M735.320358 376.870188c0.671968 0.183907 1.348989 0.307186 1.959318 0.428443C736.669347 377.177374 735.992327 377.054095 735.320358 376.870188z" p-id="2943" fill="#dbdbdb"></path><path d="M500.878165 587.829865c-0.120247-1.163061-0.182897-2.329154-0.244536-3.555875C500.695269 585.500711 500.757918 586.665793 500.878165 587.829865z" p-id="2944" fill="#dbdbdb"></path><path d="M796.747364 403.047651c0.861938 0.552732 1.720845 1.104453 2.579752 1.715793C798.468209 404.152105 797.608291 403.600383 796.747364 403.047651z" p-id="2945" fill="#dbdbdb"></path><path d="M763.091347 385.514834c0.797268 0.305165 1.530875 0.61235 2.388772 0.980164C764.622222 386.127184 763.888614 385.819999 763.091347 385.514834z" p-id="2946" fill="#dbdbdb"></path><path d="M502.167536 599.478664c-0.184918-1.28735-0.370846-2.636339-0.551721-4.046968C501.79669 596.841314 501.983629 598.190304 502.167536 599.478664z" p-id="2947" fill="#dbdbdb"></path></svg>