<?xml version="1.0" standalone="no"?><!DOCTYPE svg PUBLIC "-//W3C//DTD SVG 1.1//EN" "http://www.w3.org/Graphics/SVG/1.1/DTD/svg11.dtd"><svg t="1547994014364" class="icon" style="" viewBox="0 0 1024 1024" version="1.1" xmlns="http://www.w3.org/2000/svg" p-id="3149" xmlns:xlink="http://www.w3.org/1999/xlink" width="32" height="32"><defs><style type="text/css"></style></defs><path d="M1018.8 450.2C996.4 232.7 823.2 46.5 608 8.5 330.8-40.6 75.8 128.2 14.3 402.1c-6.2 27.4-7.4 56-11 84-0.6 4.4-1.5 8.8-2.3 13.2v19.5c1.7 16.4 3.4 32.9 5.2 49.3 7.4 68.8 27.5 133.8 63.3 192.8 32.1 52.8 80.3 89.4 134.5 118 14.5 7.7 30 13.5 45.9 18.8C151.8 826.6 86.7 733.9 57 614.4c2.9 1.1 4.5 1.4 5.6 2.2 63.2 50.5 137.4 76.6 214.9 93.7 21.4 4.7 29.7 13 34 34.3 11.6 57 31.2 111.5 58.8 163.1 6.5 12.2 14 16.9 27.3 14.5 9.1-1.6 18.4-1.7 29.8-2.7-39.8-59.7-62.2-124.8-77.4-194.7 108.5 15.4 215.7 15.5 326-0.2-8.7 31.2-16.9 60.7-26.4 94.6 16.4-15.5 29.4-28.9 43.6-40.8 15.8-13.2 21.9-30.5 24.2-49.8 1.1-9.4 5.9-13.5 14.9-14.7 11-1.4 22.5-2.7 27.1-16.9-14.6-13.8-30.2-27.4-44.5-42.2-18.7-19.3-16.8-45.6 3.4-59.1 5.3-3.5 11.6-5.7 20.9-10.1 0-37.9 1.2-77.8-0.3-117.6-1.6-39.7-6-79.4-9.4-121.7 23 6.4 45.7 12.1 68 19 42.7 13.3 84.1 30 120.3 56.6 16.3 11.9 31.9 25.9 44.4 41.6 24.5 30.8 23.2 61.7-0.7 93.1-2.8 3.7-5.8 7.2-10.8 13.4 13.2-0.9 23.9-2.2 34.6-2.1 10.5 0.1 21 1.6 32.8 2.7 1.9-16.6 3.8-34.2 5.8-51.8v-19.5c-1.6-16.4-3.4-32.8-5.1-49.1z m-566-379.3c39.2-38.3 80.6-38.2 119.8 0.4 42.6 42 64.8 95.5 83.2 150.9 7.6 22.8 13.1 46.2 19.4 68.7-55-2.9-108.6-7.9-162.2-7.9-53.7 0-107.3 4.9-163.9 7.8 9.3-30.5 17.7-62.1 28.7-92.7 16.8-47 38.5-91.6 75-127.2zM75.2 570c-40.5-39.7-39.9-81.4 0-121.5 42.2-42.3 95.7-64.4 151-82.7 22.4-7.4 45.4-12.8 67.8-19-3 55.9-8.1 109.5-8 163 0 53.6 5.1 107.1 8.1 162-78.8-20.1-157.7-42-218.9-101.8zM308 288c-2.2 9.8-5.3 14.5-16.1 16.8-67.4 14.4-132.8 35-192.1 71.3-14.2 8.7-27.5 18.7-41.2 28.1 33-170.4 186-317.6 349.4-348.5-55.3 69.5-81.7 149.2-100 232.3z m375.7 392.5c-114.8 18.1-227.9 18-342.2 0-18.3-113.9-18.1-227.3-0.2-342.3 113.6-18 227-17.7 342.1-0.3 18.6 114 18.3 227.7 0.3 342.6z m47.5-376.1c-9-1.9-12-6-13.7-14.2-15.1-70.7-36.8-138.9-75.9-200.5-7.2-11.3-15.4-21.9-23.3-33 138.6 22.6 307.6 154.9 349.1 349.1-70.7-56.4-151.7-83.2-236.2-101.4z" fill="#dbdbdb" p-id="3150"></path><path d="M979.6 595.3c-74.9 6.4-149.8 12-224.6 18.6-8.5 0.7-16.7 5.5-25 8.4 4.6 7.9 8 17.1 14.2 23.4 16.5 16.7 34.3 32.1 51.9 48.2-45.9 66.6-97.4 126.2-163.2 171.4-144.9 99.5-295.9 114.8-453 28.8-1.4-0.8-3-1.3-4.5-2-0.9 1.1-1.9 2.3-2.8 3.4 2 0.9 4.3 1.4 6 2.7 78.5 60.2 166.3 98.6 264.1 113.9 22.7 3.6 45.7 5.7 68.5 8.5H553c20.9-2.6 42-4.7 62.8-7.8 126.4-19 234.8-73.9 325.1-164.4 3.2-3.2 6.6-6.3 11-10.5 14.9 13.6 29.3 27.1 44 40.2 15.2 13.5 20 12.5 28.1-5.2V683.4c-0.8-16.9-2-33.8-2.2-50.7-0.4-30.8-11.2-40.1-42.2-37.4z" fill="#dbdbdb" p-id="3151"></path></svg>